<?xml version="1.0" encoding="UTF-8"?>
<svg version="1.1" xmlns="http://www.w3.org/2000/svg" width="512" height="512">
<path d="M0 0 C0.64469238 0.00100708 1.28938477 0.00201416 1.95361328 0.00305176 C4.34930209 0.00826223 6.74496543 0.02222344 9.140625 0.03515625 C17.184375 0.06609375 17.184375 0.06609375 25.390625 0.09765625 C25.390625 14.28765625 25.390625 28.47765625 25.390625 43.09765625 C21.513125 43.15953125 17.635625 43.22140625 13.640625 43.28515625 C-7.90458382 43.98520606 -19.1710702 54.29024799 -33.734375 69.09765625 C-34.79639918 70.1697424 -35.85889662 71.24135994 -36.921875 72.3125 C-39.48983517 74.90219091 -42.05139684 77.49810055 -44.609375 80.09765625 C-43.01180647 84.12672169 -40.15489703 86.74077792 -37.0859375 89.67578125 C-35.97107356 90.76533795 -34.85649943 91.85519125 -33.7421875 92.9453125 C-31.99283169 94.64523212 -30.24047465 96.3417895 -28.48242188 98.03271484 C-26.77865989 99.67549099 -25.08803913 101.33096102 -23.3984375 102.98828125 C-22.87851227 103.48128723 -22.35858704 103.97429321 -21.82290649 104.48223877 C-16.62168043 109.61228201 -13.14428685 115.71624937 -12.58203125 123.09765625 C-12.69320276 131.22905801 -16.38653737 136.83849491 -22.01077271 142.5111084 C-23.64550925 144.09297308 -25.29587308 145.65658926 -26.953125 147.21484375 C-27.52937119 147.76134583 -28.10561737 148.3078479 -28.69932556 148.87091064 C-31.11138833 151.15612955 -33.52262872 153.43932011 -35.98144531 155.67431641 C-43.14790682 161.68039667 -43.14790682 161.68039667 -47.03149414 169.71044922 C-46.50957309 172.35318812 -45.63472275 174.60875749 -44.609375 177.09765625 C-44.15363558 179.09723383 -43.73738498 181.10611263 -43.35546875 183.12109375 C-43.14083984 184.16265625 -42.92621094 185.20421875 -42.70507812 186.27734375 C-42.48787109 187.33179688 -42.27066406 188.38625 -42.046875 189.47265625 C-41.82580078 190.519375 -41.60472656 191.56609375 -41.37695312 192.64453125 C-31.97750411 238.64787686 -43.89120508 287.21542444 -69.28759766 326.17822266 C-96.55439964 365.77401083 -138.22635146 394.13682057 -185.609375 403.09765625 C-233.17327183 411.35973852 -282.56958803 402.8261677 -322.66015625 375.20703125 C-363.09895815 346.28391466 -391.21166565 305.49254822 -400.15283203 256.09521484 C-407.99176254 207.99516362 -397.80263751 158.74570548 -369.60766602 118.75024414 C-341.10110924 79.5751254 -299.00444052 52.28765529 -250.984375 44.28515625 C-248.19563087 43.85667033 -245.40639935 43.47170941 -242.609375 43.09765625 C-241.68898437 42.96617188 -240.76859375 42.8346875 -239.8203125 42.69921875 C-214.54177338 39.72999352 -187.10283687 42.61146013 -163.1875 51.34765625 C-160.01564565 52.27037751 -158.74897812 52.15319791 -155.609375 51.09765625 C-153.40545816 49.18705724 -151.45106573 47.31104162 -149.4609375 45.19921875 C-148.88532074 44.60845551 -148.30970398 44.01769226 -147.71664429 43.4090271 C-145.26178312 40.88899888 -142.83113919 38.34608438 -140.3984375 35.8046875 C-138.6151618 33.94870314 -136.81971635 32.10510736 -135.0234375 30.26171875 C-134.48465973 29.68974762 -133.94588196 29.11777649 -133.39077759 28.5284729 C-129.10911887 24.13882825 -125.02392039 21.63147954 -118.8359375 20.6640625 C-117.97742188 20.66277344 -117.11890625 20.66148438 -116.234375 20.66015625 C-115.38101562 20.64082031 -114.52765625 20.62148437 -113.6484375 20.6015625 C-102.97987831 22.34308823 -96.71039514 29.3864518 -89.546875 36.84765625 C-88.48100101 37.93865731 -87.41395198 39.02851168 -86.34570312 40.1171875 C-83.75324525 42.76425942 -81.17703637 45.42649867 -78.609375 48.09765625 C-75.02042222 46.58450646 -72.80581466 44.48721852 -70.1171875 41.6953125 C-69.25424072 40.80996826 -68.39129395 39.92462402 -67.50219727 39.01245117 C-66.58881592 38.07119385 -65.67543457 37.12993652 -64.734375 36.16015625 C-49.08684333 20.25139028 -33.21471901 7.73887677 -11.609375 1.09765625 C-11.04524902 0.91589844 -10.48112305 0.73414062 -9.89990234 0.546875 C-6.60669705 -0.09898918 -3.34133717 -0.02470022 0 0 Z M-296.609375 135.09765625 C-297.30546875 135.65324219 -298.0015625 136.20882812 -298.71875 136.78125 C-321.86256886 155.67520832 -333.72688155 184.80471924 -337.42919922 213.63916016 C-337.68404423 217.11651691 -337.609375 220.61097359 -337.609375 224.09765625 C-323.749375 224.09765625 -309.889375 224.09765625 -295.609375 224.09765625 C-294.949375 218.81765625 -294.289375 213.53765625 -293.609375 208.09765625 C-288.68937177 188.59986569 -278.01752303 171.65743026 -260.734375 160.91015625 C-247.98655462 153.69292871 -236.18861831 150.71757217 -221.609375 149.09765625 C-221.609375 135.23765625 -221.609375 121.37765625 -221.609375 107.09765625 C-249.75804522 107.09765625 -275.10660185 117.18891804 -296.609375 135.09765625 Z " fill="#000000" transform="translate(444.609375,63.90234375)"/>
</svg>
