<?xml version="1.0" encoding="UTF-8"?>
<svg version="1.1" xmlns="http://www.w3.org/2000/svg" width="512" height="512">
<path d="M0 0 C2.50028047 1.81054793 3.36078315 3.25034592 5 6 C5.12109375 8.703125 5.12109375 8.703125 5 11 C5.90878906 10.61328125 6.81757813 10.2265625 7.75390625 9.828125 C38.99583361 -3.22820285 73.73139591 -5.14580064 105.48828125 7.75390625 C114.60906016 11.71386825 122.41278207 16.87684285 130.35449219 22.79492188 C151.15412184 38.0274103 176.06331382 43.93495797 201.52832031 40.17529297 C216.21123141 37.70821858 231.0730032 32.53831579 242.75 23.0625 C246.42571884 20.72983228 248.57319501 20.2627828 252.84765625 20.50390625 C256.60779765 21.37058131 258.3881776 23.19229092 261 26 C262.17297328 29.51891984 262.13186505 32.29326556 262.14044189 36.00875854 C262.14489858 37.08536954 262.14489858 37.08536954 262.1494453 38.18373024 C262.15813487 40.59499205 262.15964075 43.00620423 262.16113281 45.41748047 C262.16576076 47.14377956 262.17078539 48.87007764 262.17617798 50.59637451 C262.1893052 55.29059736 262.19574743 59.98480591 262.20018864 64.67904425 C262.20311851 67.6106889 262.20722312 70.54232964 262.21169281 73.47397232 C262.22536784 82.64325469 262.23503479 91.81252812 262.2388947 100.98181999 C262.2433773 111.57253105 262.26093452 122.16311317 262.2898953 132.75378501 C262.31149599 140.93644885 262.3215981 149.11907637 262.32293582 157.30176842 C262.3239849 162.19075037 262.3299146 167.07961111 262.34775543 171.96856308 C262.36420851 176.56666921 262.3664051 181.16456265 262.35761642 185.76268768 C262.3568446 187.45055586 262.36120791 189.13843535 262.37107468 190.82627487 C262.38375343 193.1301958 262.37794009 195.43335876 262.36749268 197.73727417 C262.36895924 199.02665327 262.3704258 200.31603237 262.3719368 201.64448357 C261.73745428 207.36861872 258.84832687 210.69919615 254.43359375 214.26953125 C239.76661727 224.69885803 221.95861235 232.00459863 204 234 C203.12859375 234.10828125 202.2571875 234.2165625 201.359375 234.328125 C169.2125323 237.81835364 138.18491033 229.32692347 112.4375 209.875 C93.66188248 195.91150371 69.53954616 190.43109046 46.43505859 193.32080078 C33.64799845 195.28896059 22.52042051 198.92064702 11.16015625 205.1640625 C10.18828369 205.69725098 9.21641113 206.23043945 8.21508789 206.77978516 C7.48410889 207.18245605 6.75312988 207.58512695 6 208 C5.99918285 209.13583243 5.99918285 209.13583243 5.99834919 210.29461098 C5.98337918 228.72304902 5.94092353 247.15123632 5.86790943 265.57953835 C5.8332624 274.49136718 5.80790429 283.40304139 5.80444336 292.31494141 C5.80140306 300.08295209 5.78090385 307.85068736 5.73947543 315.61859167 C5.71814952 319.73138071 5.70554257 323.84377825 5.71384621 327.95662308 C5.72138916 331.82937494 5.7055548 335.70133372 5.67193985 339.57394028 C5.66370935 340.9936718 5.66395352 342.41348224 5.67340279 343.83320618 C5.74572077 355.89477977 5.74572077 355.89477977 2.60136414 359.83480835 C-1.19809599 362.99721043 -4.15821041 363.38734317 -9 363 C-12.7871246 361.43575288 -14.86724096 359.46186063 -17 356 C-17.37834883 353.26589978 -17.37834883 353.26589978 -17.38311005 350.05848885 C-17.39669501 348.22331017 -17.39669501 348.22331017 -17.41055441 346.35105717 C-17.40544994 344.99137144 -17.40005784 343.63168676 -17.39440918 342.27200317 C-17.39929667 340.82914214 -17.40548582 339.38628503 -17.41286707 337.9434346 C-17.42930797 333.97344624 -17.42694028 330.00365593 -17.4214921 326.03364539 C-17.41882699 321.75405407 -17.43334395 317.47451615 -17.44558716 313.19494629 C-17.46666553 304.80868417 -17.47118063 296.42249114 -17.46939927 288.03620566 C-17.46809282 281.22093514 -17.47188979 274.40568622 -17.47932434 267.59041977 C-17.48142349 265.62899109 -17.48352109 263.66756241 -17.48561716 261.70613372 C-17.48666069 260.7299424 -17.48770422 259.75375107 -17.48877937 258.7479782 C-17.50769154 240.27579376 -17.50662858 221.80364902 -17.49981004 203.33145891 C-17.49423417 186.42573761 -17.51506012 169.52016783 -17.54817051 152.61448194 C-17.58188861 135.26410286 -17.59707817 117.9137964 -17.59245348 100.56338394 C-17.59020684 90.81909739 -17.59548025 81.07495089 -17.62034607 71.33069229 C-17.64133497 63.03490171 -17.64497525 54.73932796 -17.62604648 46.44352855 C-17.61687357 42.20980512 -17.61579277 37.97648622 -17.63640213 33.74279404 C-17.65505791 29.86759882 -17.65067023 25.99314094 -17.62785631 22.11797427 C-17.62365678 20.71557271 -17.62791606 19.31311521 -17.64145225 17.9107727 C-17.74744869 6.12780685 -17.74744869 6.12780685 -14.64865875 2.18862724 C-10.01975392 -1.63630763 -5.60723872 -1.60066534 0 0 Z " fill="#FE3345" transform="translate(134,75)"/>
<path d="M0 0 C2.50028047 1.81054793 3.36078315 3.25034592 5 6 C5.12109375 8.703125 5.12109375 8.703125 5 11 C5.90878906 10.61328125 6.81757813 10.2265625 7.75390625 9.828125 C38.99583361 -3.22820285 73.73139591 -5.14580064 105.48828125 7.75390625 C114.60906016 11.71386825 122.41278207 16.87684285 130.35449219 22.79492188 C151.15412184 38.0274103 176.06331382 43.93495797 201.52832031 40.17529297 C216.21123141 37.70821858 231.0730032 32.53831579 242.75 23.0625 C246.42571884 20.72983228 248.57319501 20.2627828 252.84765625 20.50390625 C256.60779765 21.37058131 258.3881776 23.19229092 261 26 C262.17297328 29.51891984 262.13186505 32.29326556 262.14044189 36.00875854 C262.14489858 37.08536954 262.14489858 37.08536954 262.1494453 38.18373024 C262.15813487 40.59499205 262.15964075 43.00620423 262.16113281 45.41748047 C262.16576076 47.14377956 262.17078539 48.87007764 262.17617798 50.59637451 C262.1893052 55.29059736 262.19574743 59.98480591 262.20018864 64.67904425 C262.20311851 67.6106889 262.20722312 70.54232964 262.21169281 73.47397232 C262.22536784 82.64325469 262.23503479 91.81252812 262.2388947 100.98181999 C262.2433773 111.57253105 262.26093452 122.16311317 262.2898953 132.75378501 C262.31149599 140.93644885 262.3215981 149.11907637 262.32293582 157.30176842 C262.3239849 162.19075037 262.3299146 167.07961111 262.34775543 171.96856308 C262.36420851 176.56666921 262.3664051 181.16456265 262.35761642 185.76268768 C262.3568446 187.45055586 262.36120791 189.13843535 262.37107468 190.82627487 C262.38375343 193.1301958 262.37794009 195.43335876 262.36749268 197.73727417 C262.36895924 199.02665327 262.3704258 200.31603237 262.3719368 201.64448357 C261.73745428 207.36861872 258.84832687 210.69919615 254.43359375 214.26953125 C239.76661727 224.69885803 221.95861235 232.00459863 204 234 C203.12859375 234.10828125 202.2571875 234.2165625 201.359375 234.328125 C169.2125323 237.81835364 138.18491033 229.32692347 112.4375 209.875 C93.66188248 195.91150371 69.53954616 190.43109046 46.43505859 193.32080078 C33.64799845 195.28896059 22.52042051 198.92064702 11.16015625 205.1640625 C10.18828369 205.69725098 9.21641113 206.23043945 8.21508789 206.77978516 C7.48410889 207.18245605 6.75312988 207.58512695 6 208 C5.99918285 209.13583243 5.99918285 209.13583243 5.99834919 210.29461098 C5.98337918 228.72304902 5.94092353 247.15123632 5.86790943 265.57953835 C5.8332624 274.49136718 5.80790429 283.40304139 5.80444336 292.31494141 C5.80140306 300.08295209 5.78090385 307.85068736 5.73947543 315.61859167 C5.71814952 319.73138071 5.70554257 323.84377825 5.71384621 327.95662308 C5.72138916 331.82937494 5.7055548 335.70133372 5.67193985 339.57394028 C5.66370935 340.9936718 5.66395352 342.41348224 5.67340279 343.83320618 C5.74572077 355.89477977 5.74572077 355.89477977 2.60136414 359.83480835 C-1.19809599 362.99721043 -4.15821041 363.38734317 -9 363 C-12.7871246 361.43575288 -14.86724096 359.46186063 -17 356 C-17.37834883 353.26589978 -17.37834883 353.26589978 -17.38311005 350.05848885 C-17.39669501 348.22331017 -17.39669501 348.22331017 -17.41055441 346.35105717 C-17.40544994 344.99137144 -17.40005784 343.63168676 -17.39440918 342.27200317 C-17.39929667 340.82914214 -17.40548582 339.38628503 -17.41286707 337.9434346 C-17.42930797 333.97344624 -17.42694028 330.00365593 -17.4214921 326.03364539 C-17.41882699 321.75405407 -17.43334395 317.47451615 -17.44558716 313.19494629 C-17.46666553 304.80868417 -17.47118063 296.42249114 -17.46939927 288.03620566 C-17.46809282 281.22093514 -17.47188979 274.40568622 -17.47932434 267.59041977 C-17.48142349 265.62899109 -17.48352109 263.66756241 -17.48561716 261.70613372 C-17.48666069 260.7299424 -17.48770422 259.75375107 -17.48877937 258.7479782 C-17.50769154 240.27579376 -17.50662858 221.80364902 -17.49981004 203.33145891 C-17.49423417 186.42573761 -17.51506012 169.52016783 -17.54817051 152.61448194 C-17.58188861 135.26410286 -17.59707817 117.9137964 -17.59245348 100.56338394 C-17.59020684 90.81909739 -17.59548025 81.07495089 -17.62034607 71.33069229 C-17.64133497 63.03490171 -17.64497525 54.73932796 -17.62604648 46.44352855 C-17.61687357 42.20980512 -17.61579277 37.97648622 -17.63640213 33.74279404 C-17.65505791 29.86759882 -17.65067023 25.99314094 -17.62785631 22.11797427 C-17.62365678 20.71557271 -17.62791606 19.31311521 -17.64145225 17.9107727 C-17.74744869 6.12780685 -17.74744869 6.12780685 -14.64865875 2.18862724 C-10.01975392 -1.63630763 -5.60723872 -1.60066534 0 0 Z M13.90689945 31.00413227 C12 32 12 32 10.14649868 32.78933239 C7.90396592 33.97246668 6.57197925 34.99263784 5 37 C3.95160828 41.59795599 4.11494389 46.18949775 4.20532227 50.87817383 C4.20729771 52.30746361 4.20618664 53.73676049 4.20222473 55.16604614 C4.20021774 59.04021769 4.24134451 62.91286952 4.29024243 66.78668809 C4.3340281 70.83718023 4.33811557 74.88770798 4.34642029 78.93840027 C4.36816965 86.60612641 4.42560193 94.27315319 4.49586672 101.94057149 C4.57413269 110.67077302 4.61260222 119.40100811 4.64773476 128.13147318 C4.72088572 146.08804517 4.84399489 164.04396634 5 182 C8.9201218 181.26992681 12.30849954 180.14774394 16 178.625 C38.75703558 169.7077471 69.66225349 167.97300439 93 176 C93.67901367 176.22494141 94.35802734 176.44988281 95.05761719 176.68164062 C106.55316402 180.52230653 116.66742951 185.47033317 126.41357422 192.70483398 C147.69677164 208.48820411 171.3348778 215.76903517 198 213 C209.21551795 211.30561055 220.98628534 208.44531094 231 203 C231.72696044 202.68179983 232.45392088 202.36359966 233.20291042 202.03575706 C235.96086783 200.60348818 237.8886609 199.29433108 240 197 C241.3250752 192.34238929 241.14019108 187.71669951 241.02172852 182.91650391 C241.01918793 181.47721517 241.02061862 180.03791478 241.02571106 178.59863281 C241.02828889 174.70139006 240.97546057 170.80665069 240.91254544 166.90998888 C240.85620251 162.83419597 240.8509907 158.75834271 240.84031677 154.68222046 C240.81236656 146.96827022 240.73854506 139.2554708 240.64817137 131.54202688 C240.54750071 122.75866281 240.49807242 113.97524315 240.45291245 105.19144559 C240.35889168 87.12697843 240.2006361 69.0635818 240 51 C239.22286652 51.31271851 238.44573303 51.62543701 237.64505005 51.94763184 C233.44105827 53.6202456 229.15971568 55.04950843 224.875 56.5 C223.988125 56.80808594 223.10125 57.11617187 222.1875 57.43359375 C211.0867633 61.18210339 200.55401682 62.3515845 188.89501953 62.31567383 C186.76672518 62.31252475 184.63984147 62.33602258 182.51171875 62.36132812 C157.78725824 62.47567246 134.08043316 54.28538449 114.88452148 38.67456055 C87.07672535 16.58465882 44.85639064 14.72719742 13.90689945 31.00413227 Z " fill="#010000" transform="translate(134,75)"/>
</svg>
